<?xml version="1.0" encoding="utf-8"?>
<!-- Generator: Adobe Illustrator 22.0.0, SVG Export Plug-In . SVG Version: 6.00 Build 0)  -->
<svg version="1.1" id="Layer_1" xmlns="http://www.w3.org/2000/svg" xmlns:xlink="http://www.w3.org/1999/xlink" x="0px" y="0px"
	 viewBox="0 0 143 55" style="enable-background:new 0 0 143 55;" xml:space="preserve">
<style type="text/css">
	.st0{filter:url(#Adobe_OpacityMaskFilter);}
	.st1{fill:#FFFFFF;}
	.st2{mask:url(#mask-2_1_);fill:#FFFFFF;}
	.st3{filter:url(#Adobe_OpacityMaskFilter_1_);}
	.st4{mask:url(#mask-4_1_);fill:#FFFFFF;}
</style>
<title>Page 1</title>
<desc>Created with Sketch.</desc>
<g id="Page-1_1_">
	<g id="FC-homepage-alternative" transform="translate(-1302.000000, -11614.000000)">
		<g id="Page-1" transform="translate(1302.000000, 11614.000000)">
			<g id="Group-3" transform="translate(0.000000, 24.000000)">
				<g id="Clip-2">
				</g>
				<defs>
					<filter id="Adobe_OpacityMaskFilter" filterUnits="userSpaceOnUse" x="0" y="1" width="23.9" height="29">
						<feColorMatrix  type="matrix" values="1 0 0 0 0  0 1 0 0 0  0 0 1 0 0  0 0 0 1 0"/>
					</filter>
				</defs>
				<mask maskUnits="userSpaceOnUse" x="0" y="1" width="23.9" height="29" id="mask-2_1_">
					<g class="st0">
						<polygon id="path-1_1_" class="st1" points="0,30 0,1 23.9,1 23.9,30 						"/>
					</g>
				</mask>
				<path id="Fill-1" class="st2" d="M16.8,27.1c2.2,0,4.6-0.5,7-1.4l0.1,0.4c-2.8,2.6-6.6,4-10,4C6.6,30,0,24.9,0,15.5
					C0,7.5,5.9,1,15.3,1c2.4,0,5,0.4,7.9,1.4V11h-0.5l-5.1-9.1c-4.1-0.3-9.3,2.2-9.3,12.7C8,23.3,12,27.1,16.8,27.1"/>
			</g>
			<path id="Fill-4" class="st1" d="M67.5,12c2.4,0,4.2,1.8,4.2,4.3s-1.8,4.3-4.2,4.3s-4.2-1.8-4.2-4.3S65.1,12,67.5,12L67.5,12z
				 M71.2,51.2l3.8,1.3V53H60v-0.5l3.8-1.3V28.6L60,27.5v-0.4L70.8,25l0.3,0.3v25.9H71.2z"/>
			<polygon id="Fill-6" class="st1" points="88.2,52.2 92,53.5 92,54 77,54 77,53.5 80.8,52.2 80.8,13.7 77,12.5 77,12.1 87.8,10 
				88.1,10.3 88.1,52.2 			"/>
			<path id="Fill-8" class="st1" d="M102.5,12c2.4,0,4.2,1.8,4.2,4.3s-1.8,4.3-4.2,4.3c-2.4,0-4.2-1.8-4.2-4.3S100.1,12,102.5,12
				L102.5,12z M106.2,51.2l3.8,1.3V53H95v-0.5l3.8-1.3V28.6L95,27.5v-0.4l10.8-2.1l0.3,0.3v25.9H106.2z"/>
			<g id="Group-12" transform="translate(112.000000, 10.000000)">
				<g id="Clip-11">
				</g>
				<defs>
					<filter id="Adobe_OpacityMaskFilter_1_" filterUnits="userSpaceOnUse" x="0.5" y="0" width="30.2" height="45">
						<feColorMatrix  type="matrix" values="1 0 0 0 0  0 1 0 0 0  0 0 1 0 0  0 0 0 1 0"/>
					</filter>
				</defs>
				<mask maskUnits="userSpaceOnUse" x="0.5" y="0" width="30.2" height="45" id="mask-4_1_">
					<g class="st3">
						<polygon id="path-3_1_" class="st1" points="0.5,45 30.7,45 30.7,0 0.5,0 						"/>
					</g>
				</mask>
				<path id="Fill-10" class="st4" d="M19.5,18.3c-1.4-0.7-3-0.9-4.3-0.9c-3.7,0-6.8,3.8-6.8,13c0,8.9,2.5,11.6,5.9,11.6
					c1.8,0,3.5-0.7,5.2-2V18.3z M19.5,3.7l-3.9-1.2V2.1l11-2.1l0.3,0.3v41l3.9,1.2v0.4l-11,2.1l-0.3-0.3v-3.8h-0.1
					c-2.5,2.5-5.3,4.1-8.5,4.1C5.7,45,0.5,40.4,0.5,30.8c0-10.2,6.6-15,12.8-15c2.2,0,4.4,0.5,6.2,1.6V3.7z"/>
			</g>
			<path id="Fill-13" class="st1" d="M55.1,52.2V34.9c0-6.9-3.9-9.1-8.3-9.1c-3.5,0-6.6,1.3-9.2,4.1h-0.1V7.5L29.9,0v52.2L26,53.5
				V54h15v-0.5l-3.5-1.3V30.5c2-1.3,4.1-2.1,6-2.1c2.4,0,4.1,1.3,4.1,5V52L44,53.3v0.5h15v-0.5L55.1,52.2z"/>
		</g>
	</g>
</g>
</svg>
